<svg version="1.1" xmlns="http://www.w3.org/2000/svg" xmlns:xlink="http://www.w3.org/1999/xlink" width="64" height="64" viewBox="0,0,64,64">
	<desc>users_family icon - Licensed under Iconfu Standard License v1.0 (https://www.iconfu.com/iconfu_standard_license) - Incors GmbH</desc>
	<g fill="#546e7a" fill-rule="nonzero" style="mix-blend-mode: normal">
		<path d="M1.76,39.66c0,-5.49 2.21,-10.5 5.82,-14c-1.45,-2.24 -2.3,-4.91 -2.3,-7.78c0,-7.94 6.46,-14.36 14.4,-14.36c6.51,0 12.03,4.31 13.8,10.25c2.48,-2.01 5.64,-3.21 9.08,-3.21c7.94,0 14.4,6.41 14.4,14.36c0,2.87 -0.84,5.54 -2.3,7.78c3.6,3.5 5.82,8.5 5.82,14c0,8.12 -14.77,8.5 -17.92,8.5c-2.07,0 -4.51,-0.16 -6.87,-0.53c-1.36,5.72 -11.2,5.81 -12.49,5.81c-1.38,0 -12.64,-0.11 -12.64,-7.18c0,-2.06 0.36,-4.05 1.04,-5.87c-4.26,-0.81 -9.84,-2.77 -9.84,-7.77zM16.16,39.04c0,3.89 3.15,7.04 7.04,7.04c3.89,0 7.04,-3.15 7.04,-7.04c0,-3.89 -3.15,-7.04 -7.04,-7.04c-3.89,0 -7.04,3.15 -7.04,7.04zM29.25,45.43c-1.58,1.5 -3.71,2.41 -6.05,2.41c-2.35,0 -4.48,-0.92 -6.05,-2.41c-1.69,1.98 -2.75,4.77 -2.75,7.87c0,2.39 5.28,3.34 8.8,3.34c3.52,0 8.8,-0.95 8.8,-3.34c0,-3.1 -1.06,-5.89 -2.75,-7.87zM50.57,34.25c-2.15,1.84 -4.95,2.95 -8.01,2.95c-3.06,0 -5.85,-1.11 -8.01,-2.95c-1.04,0.78 -1.98,1.7 -2.8,2.74c0.16,0.66 0.24,1.34 0.24,2.05c0,1.87 -0.59,3.61 -1.58,5.04l0.17,0.2c1.47,1.71 2.42,3.81 2.87,6.01c2.81,0.74 6.3,1.06 9.1,1.06c5.63,0 14.08,-1.32 14.08,-4.66c0,-5.16 -2.41,-9.72 -6.07,-12.45zM32,24.92c0,5.81 4.73,10.52 10.56,10.52c5.83,0 10.56,-4.71 10.56,-10.52c0,-5.81 -4.73,-10.52 -10.56,-10.52c-5.83,0 -10.56,4.71 -10.56,10.52zM32.58,33.58c-1.05,-2.58 -2.76,-4.78 -4.89,-6.37c-2.15,1.84 -4.95,2.95 -8.01,2.95c-3.06,0 -5.85,-1.11 -8.01,-2.95c-3.67,2.73 -6.07,7.29 -6.07,12.46c0,2.65 5.32,4.03 10.33,4.48l0.06,-0.07c-1,-1.43 -1.58,-3.16 -1.58,-5.04c0,-4.86 3.94,-8.8 8.8,-8.8c3.43,0 6.41,1.97 7.86,4.84c0.47,-0.53 0.98,-1.03 1.52,-1.5zM9.12,17.88c0,5.81 4.73,10.52 10.56,10.52c5.83,0 10.56,-4.71 10.56,-10.52c0,-5.81 -4.73,-10.52 -10.56,-10.52c-5.83,0 -10.56,4.71 -10.56,10.52z"/>
	</g>
</svg>